<svg width="59" height="59" viewBox="0 0 59 59" fill="none" xmlns="http://www.w3.org/2000/svg">
<path d="M20 0C8.95431 0 0 8.95431 0 20V39C0 50.0457 8.95431 59 20 59H39C50.0457 59 59 50.0457 59 39V20C59 8.95431 50.0457 0 39 0H20Z" fill="#454A50"/>
<path d="M36.1645 14.3675C35.6079 14.7132 34.8683 14.8554 34.2525 15.0806C32.8501 15.5935 31.4291 16.1018 30.046 16.6554C28.997 17.0754 27.9667 17.5779 26.9321 18.0354C23.8923 19.3794 20.9041 20.8619 18.1367 22.7077C16.7145 23.6563 15.312 24.7365 14.2785 26.1129C13.6043 27.0109 13.1177 28.0873 13.1676 29.2268C13.2417 30.9151 14.5606 32.0815 15.9516 32.8203C18.6316 34.2439 21.7444 34.9507 24.7469 35.288C25.8306 35.4097 26.9342 35.5585 28.0247 35.5638C28.2787 35.565 28.5356 35.5739 28.7893 35.5628C28.8735 35.5591 29.0015 35.5624 29.0531 35.4792C29.1077 35.391 29.0145 35.3181 28.9451 35.2827C28.7378 35.1771 28.4675 35.1501 28.2432 35.0924C27.2326 34.8326 26.2441 34.5076 25.2386 34.2331C22.5949 33.5112 19.8412 32.5949 17.4266 31.2858C16.8532 30.9751 16.305 30.618 15.8425 30.1553C15.6093 29.922 15.3847 29.6697 15.3168 29.3361C15.2125 28.8242 15.4237 28.2924 15.6792 27.8611C15.8661 27.5457 16.0978 27.2587 16.3433 26.987C17.6515 25.5386 19.2994 24.4404 20.9775 23.4725C21.9772 22.8958 22.9483 22.3039 23.9821 21.7836C28.4115 19.5547 33.0114 17.748 37.6942 16.1233C39.2593 15.5802 40.8448 15.0576 42.4469 14.6344C42.9381 14.5046 43.4275 14.3692 43.9219 14.2519C44.1288 14.2029 44.4483 14.2045 44.6147 14.0616C44.8352 13.8724 44.7762 13.2123 44.7333 12.9482C44.6938 12.7054 44.5137 12.6874 44.3043 12.6587C43.9142 12.6052 43.4962 12.5698 43.1025 12.565C41.3545 12.5435 39.6099 12.4009 37.858 12.4009C32.995 12.4009 28.0644 12.79 23.3266 13.9592C20.9396 14.5483 18.4808 15.2658 16.3886 16.5998C14.7052 17.6731 13.2201 19.3137 13.2201 21.4148C13.2201 21.8991 13.2732 22.3366 13.4813 22.7805C13.7066 23.2611 14.0007 23.708 14.3694 24.0916C14.4808 24.2074 14.6325 24.4034 14.8043 24.4237C14.9599 24.4421 15.0849 24.2954 15.1867 24.2006C15.4523 23.9536 15.7301 23.7218 16.0059 23.4863C16.0971 23.4085 16.268 23.2997 16.268 23.1629C16.268 22.9946 16.0082 22.8366 15.9064 22.7251C15.6812 22.4784 15.4411 22.1871 15.3762 21.8518C15.0088 19.953 17.0609 18.6342 18.4645 17.8562C19.5481 17.2556 20.779 16.868 21.9608 16.5134C24.1708 15.8504 26.4506 15.4246 28.7349 15.117C31.1847 14.7869 33.6894 14.3675 36.1645 14.3675Z" fill="#FF593F"/>
<path d="M29.9732 23.4912C29.8734 23.5758 29.9716 23.6749 30.0547 23.7172C30.2303 23.8067 30.4569 23.8324 30.6472 23.88C31.5263 24.0997 32.4075 24.34 33.2694 24.6199C35.6675 25.3986 38.0551 26.1172 40.3713 27.1277C41.5596 27.6461 42.9064 28.2856 43.5822 29.4453C43.9992 30.161 43.377 31.1381 42.9337 31.6851C42.795 31.8563 42.4038 32.1578 42.4039 32.3896C42.4039 32.5588 42.6553 32.6529 42.775 32.7237C43.1134 32.9239 43.438 33.1444 43.7583 33.372C43.888 33.4642 44.0287 33.5857 44.1932 33.5017C44.5727 33.3078 44.9139 32.644 45.1234 32.2861C45.4476 31.7323 45.735 31.1254 45.8185 30.4833C45.9667 29.3427 45.5064 28.1101 44.6868 27.3169C43.7777 26.4371 42.5699 25.8779 41.4093 25.4136C38.9485 24.4293 36.2779 23.9267 33.6518 23.6455C32.7482 23.5488 31.8291 23.4405 30.9204 23.4361C30.6947 23.435 30.1539 23.3379 29.9732 23.4912ZM22.8352 44.6324C23.1495 44.4372 23.5235 44.3483 23.8731 44.2318C24.3878 44.0602 24.8953 43.8719 25.4028 43.6805C27.2394 42.9877 29.0616 42.2653 30.8657 41.4955C32.4542 40.8177 34.0194 40.092 35.5639 39.3198C36.9616 38.621 38.332 37.8855 39.6611 37.062C40.152 36.7579 40.8379 36.4586 41.227 36.0273C41.4342 35.7975 41.1558 35.6497 40.9722 35.5472C40.5967 35.3376 40.2191 35.1358 39.825 34.9627C39.6779 34.8982 39.5006 34.77 39.3333 34.79C39.1201 34.8156 38.9078 35.0223 38.7324 35.1344C38.321 35.3972 37.8968 35.6438 37.4759 35.891C36.092 36.704 34.6493 37.4011 33.2148 38.1179C32.1109 38.6695 30.9634 39.1414 29.8278 39.6219C26.6876 40.9508 23.5026 42.1518 20.2676 43.2302C18.8783 43.6933 17.4719 44.1077 16.0611 44.4999C15.6827 44.6051 15.2981 44.7034 14.9139 44.7847C14.7473 44.82 14.5197 44.8226 14.385 44.9382C14.1702 45.1226 14.2057 45.8491 14.2757 46.1041C14.3357 46.3227 14.5593 46.3309 14.75 46.3573C15.2354 46.4244 15.7364 46.4066 16.225 46.44C18.2599 46.5794 20.3007 46.5991 22.3435 46.599C24.0484 46.5989 25.7819 46.4973 27.4787 46.3352C28.1124 46.2746 28.7605 46.2764 29.3907 46.201C32.8533 45.7869 36.3943 45.0693 39.6611 43.8361C42.0255 42.9435 44.7487 41.526 45.575 38.9509C45.7212 38.4953 45.8391 37.9564 45.8272 37.4759C45.7731 35.2886 43.582 33.8516 41.8463 32.9557C36.7617 30.3314 31.1315 28.9876 25.7306 27.1873C24.3213 26.7175 22.9162 26.2467 21.5241 25.7278C21.1028 25.5707 20.6846 25.4069 20.2676 25.2388C20.104 25.1728 19.9024 25.0424 19.7213 25.0512C19.5541 25.0594 19.413 25.1922 19.2843 25.2852C18.9722 25.5107 18.6585 25.7344 18.3556 25.9722C18.2407 26.0624 17.9986 26.2059 18.0235 26.381C18.0482 26.5548 18.3315 26.6362 18.4648 26.6999C18.9476 26.9303 19.4467 27.131 19.9398 27.3379C22.0646 28.2295 24.2574 28.9178 26.4407 29.6456C30.6372 31.0444 34.8993 32.2205 39.0056 33.8813C40.2748 34.3946 41.7175 34.991 42.7204 35.9484C43.0239 36.2382 43.37 36.5398 43.545 36.9296C44.186 38.3578 42.602 39.8233 41.5731 40.5245C40.1807 41.4734 38.5386 42.0483 36.9296 42.5095C35.151 43.0194 33.3464 43.397 31.5213 43.6993C29.78 43.9877 28.032 44.1986 26.2768 44.3685C25.1355 44.479 23.9829 44.6324 22.8352 44.6324Z" fill="#FF593F"/>
</svg>